<?xml version="1.0" encoding="UTF-8"?>
<svg width="32" height="32" viewBox="0 0 32 32" fill="none" xmlns="http://www.w3.org/2000/svg">
    <circle cx="16" cy="16" r="14" fill="#1e3c72"/>
    <path d="M16 6C10.477 6 6 10.477 6 16C6 21.523 10.477 26 16 26C21.523 26 26 21.523 26 16C26 10.477 21.523 6 16 6ZM21.707 13.707L15.707 19.707C15.512 19.902 15.256 20 15 20C14.744 20 14.488 19.902 14.293 19.707L10.293 15.707C9.902 15.316 9.902 14.684 10.293 14.293C10.684 13.902 11.316 13.902 11.707 14.293L15 17.586L20.293 12.293C20.684 11.902 21.316 11.902 21.707 12.293C22.098 12.684 22.098 13.316 21.707 13.707Z" fill="white"/>
</svg>
